<?xml version="1.0" encoding="UTF-8"?>
<svg id="Ebene_2" data-name="Ebene 2" xmlns="http://www.w3.org/2000/svg" viewBox="0 0 318 318">
  <defs>
    <style>
      .cls-1 {
        fill: #0f23ff;
      }

      .cls-1, .cls-2 {
        stroke-width: 0px;
      }

      .cls-2 {
        fill: #fff;
      }
    </style>
  </defs>
  <g id="Ebene_1-2" data-name="Ebene 1">
    <rect class="cls-1" x="0" width="318" height="318" rx="50" ry="50"/>
    <path class="cls-2" d="M236.73,173.28c-5.92,43.52-38.47,76.81-77.73,76.81s-71.81-33.29-77.72-76.81c-.31-2.25,1.43-4.26,3.71-4.26h48.93c1.37,0,2.61.76,3.28,1.94,6.88,12.12,21.31,20.46,37.99,20.46s31.1-8.34,37.99-20.46c.68-1.19,1.91-1.94,3.28-1.94h16.58c2.27,0,4.01,2.01,3.71,4.26M159,47.87c-61.37,0-111.12,49.75-111.12,111.12,0,3.38.15,6.72.45,10.02,5.06,56.68,52.67,101.11,110.67,101.11s105.61-44.43,110.67-101.11c.3-3.3.45-6.64.45-10.02,0-61.37-49.75-111.12-111.12-111.12"/>
  </g>
</svg>