<?xml version="1.0" encoding="UTF-8"?>
<svg id="Ebene_2" data-name="Ebene 2" xmlns="http://www.w3.org/2000/svg" viewBox="0 0 428.85 119.94">
  <defs>
    <style>
      .cls-1 {
        fill: #0f23ff;
        stroke-width: 0px;
      }
    </style>
  </defs>
  <g id="Ebene_1-2" data-name="Ebene 1">
    <g>
      <path class="cls-1" d="M201.72,66.87v30.19h-14.94v-28.92c0-8.9-3.6-13.88-11.02-13.88s-12.18,5.51-12.18,14.83v27.97h-14.94V22.91h14.94v26.38c3.5-4.24,8.37-7.31,16.1-7.31,12.08,0,22.03,6.46,22.03,24.89Z"/>
      <path class="cls-1" d="M204.51,69.83c0-16.74,11.33-27.86,28.71-27.86s28.71,11.12,28.71,27.86-11.33,27.86-28.71,27.86-28.71-11.12-28.71-27.86ZM246.78,69.83c0-9.22-5.19-15.68-13.56-15.68s-13.45,6.46-13.45,15.68,5.08,15.68,13.45,15.68,13.56-6.46,13.56-15.68Z"/>
      <path class="cls-1" d="M350.52,65.81v31.25h-14.94v-30.4c0-8.16-2.97-12.39-9.43-12.39s-10.8,4.77-10.8,13.03v29.77h-14.94v-30.4c0-8.16-2.97-12.39-9.53-12.39s-10.7,4.98-10.7,13.14v29.66h-14.94v-54.45h13.03l1.38,6.78c3.28-4.24,8.05-7.31,15.99-7.41,6.67-.11,12.92,2.33,16.31,9.22,3.81-5.83,10.17-9.22,18.43-9.22,11.23,0,20.13,6.36,20.13,23.83Z"/>
      <path class="cls-1" d="M373.94,78.56c-5.27-16.11,1.88-30.04,17.89-35.27,15.51-5.07,29.14,1.17,34.31,16.31.49,1.51.95,3.25,1.18,4.96l-37.56,12.28.23.7c2.7,7.25,8.88,10.14,16.03,7.8,5.74-1.88,8.94-5.71,8.57-10.94l14-4.57c1.68,10.59-4.65,21.58-18.44,26.09-17.22,5.63-30.98-1.35-36.21-17.36ZM410.39,59.84c-3.08-6.01-8.56-8.12-15.01-6.02-6.14,2.01-9.56,7.25-8.35,13.65l23.36-7.64Z"/>
      <rect class="cls-1" x="353.85" y="42.61" width="15.04" height="54.45"/>
      <path class="cls-1" d="M59.97,0C26.85,0,0,26.85,0,59.97c0,1.82.08,3.63.24,5.41,2.73,30.59,28.43,54.57,59.73,54.57s57-23.98,59.73-54.57c.16-1.78.24-3.58.24-5.41C119.94,26.85,93.09,0,59.97,0ZM101.92,67.68c-3.19,23.49-20.76,41.45-41.95,41.45s-38.76-17.96-41.95-41.45c-.17-1.21.77-2.3,2-2.3h26.41c.74,0,1.41.41,1.77,1.05,3.71,6.54,11.5,11.04,20.5,11.04s16.79-4.5,20.5-11.04c.36-.64,1.03-1.05,1.77-1.05h8.95c1.23,0,2.16,1.08,2,2.3Z"/>
    </g>
  </g>
</svg>